Coordinates
version=1
nRows=22
nColumns=24
inDegrees=yes

Units are S.I. units (second, meters, Newtons, ...)
Angles are in degrees.

endheader
time	pelvis_tilt	pelvis_list	pelvis_rotation	pelvis_tx	pelvis_ty	pelvis_tz	hip_flexion_r	hip_adduction_r	hip_rotation_r	knee_angle_r	ankle_angle_r	subtalar_angle_r	mtp_angle_r	hip_flexion_l	hip_adduction_l	hip_rotation_l	knee_angle_l	ankle_angle_l	subtalar_angle_l	mtp_angle_l	lumbar_extension	lumbar_bending	lumbar_rotation
      3.57000000	     22.26199673	     -5.23417596	      6.54907239	      0.18694392	      1.02906952	      0.03609666	    -13.74901022	      8.44169940	     -7.91330951	    -15.49989141	     10.82819524	    -10.09026801	      4.22912238	     -6.35566077	    -12.71169350	      0.96408789	    -60.09614686	     -1.62894655	    -13.46515872	     36.44730779	    -38.14318407	      6.52426194	      0.97827664
      3.57500000	     22.26423874	     -5.08224337	      6.53919419	      0.19177063	      1.02964000	      0.03648866	    -14.24123890	      8.36492342	     -7.82705869	    -15.19601424	     10.95878052	    -10.11180295	      4.22745375	     -5.74401443	    -12.50229155	      0.92772331	    -59.98057614	     -1.12375954	    -13.60941551	     36.43766360	    -38.17694667	      6.35768083	      0.98130706
      3.58000000	     22.38549656	     -4.89070446	      6.53351808	      0.19667025	      1.03038092	      0.03684979	    -14.89820008	      8.25414322	     -7.80956139	    -14.84469692	     11.10871496	    -10.04052947	      4.08207915	     -5.32297913	    -12.26082389	      0.87211182	    -59.74178550	     -0.52977272	    -13.59397247	     35.82243581	    -38.33155820	      6.15868000	      0.97891803
      3.58500000	     22.34049833	     -4.72038690	      6.48181525	      0.20147624	      1.03087122	      0.03727001	    -15.33065036	      8.14134734	     -7.69464046	    -14.56142530	     11.25232804	    -10.10485295	      4.06611906	     -4.71031513	    -12.01264794	      0.78733688	    -59.48098314	     -0.05581162	    -13.68098568	     35.76123039	    -38.32229790	      5.94721770	      0.98070731
      3.59000000	     22.35902626	     -4.54640775	      6.41115254	      0.20631447	      1.03143912	      0.03769691	    -15.84934936	      8.02323055	     -7.56937270	    -14.25240632	     11.38728707	    -10.13314757	      4.03703338	     -4.21476105	    -11.76734439	      0.66082942	    -59.12000373	      0.44187840	    -13.68876502	     35.64627202	    -38.37823363	      5.72460635	      1.01602186
      3.59500000	     22.41770782	     -4.37993794	      6.33181731	      0.21114304	      1.03203676	      0.03813776	    -16.42396897	      7.91099516	     -7.42670271	    -13.92065606	     11.57565985	    -10.02197115	      3.43000932	     -3.78430564	    -11.53298512	      0.51426223	    -58.71100399	      1.13160813	    -13.46348044	     33.14536678	    -38.47831986	      5.50244076	      1.05376474
      3.60000000	     22.44119782	     -4.21336217	      6.23933844	      0.21597614	      1.03258248	      0.03861113	    -16.95316749	      7.79400186	     -7.26832568	    -13.59778072	     11.68516189	    -10.05075236	      3.42068559	     -3.34521817	    -11.29821705	      0.34511461	    -58.20188929	      1.56572533	    -13.42464649	     33.14415123	    -38.54058766	      5.26837302	      1.10213572
      3.60500000	     22.48248464	     -4.05298288	      6.13416083	      0.22079423	      1.03311620	      0.03909085	    -17.50076185	      7.67627727	     -7.11010366	    -13.27383697	     11.79831911	    -10.04117154	      3.40621415	     -2.95140349	    -11.07278817	      0.14642327	    -57.62278341	      1.98556021	    -13.38813391	     33.09666482	    -38.62418512	      5.03333066	      1.16523212
      3.61000000	     22.54007721	     -3.88386286	      6.01298329	      0.22563746	      1.03366464	      0.03958536	    -18.07156354	      7.54252979	     -6.95652578	    -12.94506517	     11.91100967	    -10.01467336	      3.38455662	     -2.61306411	    -10.84004166	     -0.08228113	    -56.95862364	      2.37706274	    -13.34621244	     33.00021404	    -38.72245930	      4.78120170	      1.22878416
      3.61500000	     22.53839951	     -3.72926476	      5.91141731	      0.23043316	      1.03407956	      0.04004827	    -18.55141921	      7.41927891	     -6.85308676	    -12.65440907	     12.03151288	    -10.01861092	      3.37134051	     -2.20803199	    -10.61356455	     -0.28397861	    -56.25730605	      2.77526902	    -13.31907264	     32.93394916	    -38.76050789	      4.54935967	      1.28071863
      3.62000000	     22.60224833	     -3.56519698	      5.77564966	      0.23526061	      1.03458178	      0.04054677	    -19.12413814	      7.27981392	     -6.69659207	    -12.32956410	     12.14365217	     -9.98100154	      3.35060302	     -1.92910407	    -10.38869330	     -0.54740831	    -55.45308060	      3.12831534	    -13.23140097	     32.81776109	    -38.86683454	      4.29203310	      1.35796938
      3.62500000	     22.68954415	     -3.41868108	      5.65058485	      0.24008908	      1.03507394	      0.04103870	    -19.73283820	      7.16207024	     -6.51711985	    -11.97850123	     12.23409569	     -9.90010095	      3.31299045	     -1.69288464	    -10.18783145	     -0.80818501	    -54.58794185	      3.41241524	    -13.15244463	     32.59962072	    -38.99652421	      4.05719735	      1.42432326
      3.63000000	     22.72711486	     -3.26482726	      5.53224137	      0.24490141	      1.03546365	      0.04148630	    -20.26619741	      7.02724453	     -6.39091092	    -11.66628922	     12.34834214	     -9.84930349	      3.28188750	     -1.41871079	     -9.96968126	     -1.06046174	    -53.66859156	      3.71348034	    -13.06433451	     32.39533368	    -39.07339772	      3.82012811	      1.47977731
      3.63500000	     22.79681172	     -3.11269045	      5.40205420	      0.24974385	      1.03587324	      0.04194630	    -20.84129547	      6.88934245	     -6.27005340	    -11.34351660	     12.45020504	     -9.76780705	      3.24159683	     -1.21978263	     -9.75854835	     -1.34142252	    -52.66542063	      3.99209395	    -12.98378447	     32.12209005	    -39.18123105	      3.57703399	      1.54032570
      3.64000000	     22.84553721	     -2.96799700	      5.28444963	      0.25457086	      1.03620704	      0.04235819	    -21.38330178	      6.75518713	     -6.16907132	    -11.03577172	     12.55890894	     -9.68028461	      3.20071405	     -1.01025343	     -9.55249159	     -1.61258513	    -51.61557704	      4.25336139	    -12.87958529	     31.82591957	    -39.26725166	      3.35086072	      1.59420781
      3.64500000	     22.90701967	     -2.82312728	      5.16791531	      0.25941160	      1.03652099	      0.04275578	    -21.93962868	      6.61806746	     -6.08962890	    -10.72692643	     12.65660482	     -9.57437431	      3.15883930	     -0.84622830	     -9.34539049	     -1.88721810	    -50.49328857	      4.50322230	    -12.78546527	     31.50329575	    -39.36461397	      3.12369013	      1.64783365
      3.65000000	     22.94699253	     -2.67768306	      5.05381723	      0.26425621	      1.03677567	      0.04312248	    -22.46680814	      6.47503866	     -6.01522000	    -10.43019021	     12.77803233	     -9.46137663	      3.12511380	     -0.68209170	     -9.13351856	     -2.15912630	    -49.31083387	      4.71685133	    -12.65041786	     31.19193395	    -39.43802034	      2.90053645	      1.68763915
      3.65500000	     22.92683026	     -2.53264614	      4.95615954	      0.26906797	      1.03690623	      0.04344150	    -22.90561735	      6.33050626	     -5.97508457	    -10.17204670	     12.91492100	     -9.41244818	      3.11527550	     -0.46001384	     -8.91169495	     -2.40018385	    -48.08752170	      4.89921647	    -12.48354528	     31.03235600	    -39.44967130	      2.68656000	      1.71164606
      3.66000000	     23.02069976	     -2.40426377	      4.84078335	      0.27393560	      1.03714383	      0.04378363	    -23.50188603	      6.20046736	     -5.88085793	     -9.85470371	     13.02633923	     -9.21570366	      3.10306152	     -0.41819922	     -8.72571513	     -2.69416971	    -46.76771925	      5.05893325	    -12.32677722	     30.78731323	    -39.57627667	      2.48123356	      1.74410792
      3.66500000	     23.07933707	     -2.26523980	      4.73398693	      0.27879397	      1.03730251	      0.04405197	    -24.04288170	      6.05250070	     -5.84196905	     -9.57006642	     13.14596055	     -9.04736104	      3.09235585	     -0.36102030	     -8.51375325	     -2.96483757	    -45.39157390	      5.21517225	    -12.14091098	     30.53576057	    -39.66691797	      2.27550812	      1.77150721
      3.67000000	     23.11771934	     -2.13306826	      4.62685148	      0.28365903	      1.03741249	      0.04431285	    -24.55475734	      5.90708325	     -5.80603252	     -9.29941811	     13.27157852	     -8.87376503	      3.08808148	     -0.30989609	     -8.30623732	     -3.23459147	    -43.95392626	      5.34830012	    -11.92470214	     30.30149600	    -39.73414305	      2.07356887	      1.79532960
      3.67500000	     23.17300296	     -1.96873951	      4.55965649	      0.28853355	      1.03750528	      0.04443825	    -25.09064383	      5.73787466	     -5.87538371	     -9.02341018	     13.39960536	     -8.65255696	      3.02727567	     -0.30503246	     -8.04520876	     -3.44272798	    -42.44764652	      5.47077659	    -11.75047423	     29.45940215	    -39.81948867	      1.87510048	      1.76226033
